<?xml version="1.0" encoding="utf-8"?>
<svg version="1.1" xmlns:cc="http://creativecommons.org/ns#" xmlns:dc="http://purl.org/dc/elements/1.1/" xmlns:rdf="http://www.w3.org/1999/02/22-rdf-syntax-ns#" xmlns="http://www.w3.org/2000/svg" xmlns:xlink="http://www.w3.org/1999/xlink" x="0px" y="0px" viewBox="0 0 200 200" xml:space="preserve">
<defs>
<filter id="blur" x="0%" y="0%" width="100%" height="100%">
  <feGaussianBlur in="SourceGraphic" stdDeviation="20" />
</filter>
</defs>
<g filter="url(#blur)">
<rect width="100" height="100" x="0" y="0" fill="#690707" />
<rect width="100" height="100" x="100" y="0" fill="#cb0000" />
<rect width="100" height="100" x="100" y="100" fill="#aa0202" />
<rect width="100" height="100" x="0" y="100" fill="#8a0505" />
</g>

<path fill="#f4edca" d="m89.26788 147.88196c0.13967 0.07048 0.52227 0.38706 0.84625 0.70074 0.32464 0.31238 0.98596 0.92647 1.46276 1.36397 0.48012 0.43087 1.37731 1.22241 1.99437 1.7424 0.62101 0.52866 1.63 1.3566 2.24519 1.84392 0.6145 0.48535 1.1752 0.92516 1.24295 0.98604 0.08302 0.06695 0.10071 0.14764 0.05104 0.24607-0.0396 0.07846-0.44918 0.38741-0.90869 0.68954-0.46088 0.30812-1.51805 0.9678-2.35342 1.4724-0.83608 0.50929-2.15146 1.26728-2.92861 1.69615-0.77446 0.42356-2.02417 1.07785-2.77513 1.45485-0.74694 0.37236-1.88432 0.91981-2.52037 1.21128-0.63403 0.28748-2.08086 0.91907-3.20664 1.39394s-2.60382 1.07905-3.28905 1.33901c-0.67858 0.25667-1.96481 0.70229-2.86002 0.98814-0.88519 0.28255-2.13389 0.66369-2.76949 0.83857-0.63232 0.18155-1.79409 0.48306-2.57636 0.67406-0.78157 0.19298-1.97457 0.46373-2.64603 0.60714-0.66946 0.13945-1.89432 0.38076-2.72506 0.52891-0.82803 0.14285-1.99407 0.33707-2.60074 0.4281-0.60128 0.08038-1.75047 0.22471-2.55234 0.31568-0.79656 0.09365-2.11092 0.21803-2.92137 0.28633-0.80708 0.06162-2.13665 0.15331-2.95434 0.19626-0.81433 0.03961-2.26498 0.08352-3.22249 0.09597-0.95282 0.01311-2.27538 0.01154-2.92757-0.0122-0.65689-0.01776-1.66083-0.05545-2.22506-0.08486-0.56758-0.02611-1.72593-0.10834-2.57584-0.18014-0.84526-0.06774-2.31849-0.22381-3.27353-0.33529-0.94899-0.12012-2.41605-0.32476-3.25104-0.46578-0.83101-0.13901-1.9616-0.33909-2.51556-0.44177-0.54529-0.10661-1.63048-0.33386-2.40338-0.50861-0.77089-0.17544-1.75012-0.40761-2.16819-0.50842-0.42136-0.1075-1.23275-0.32173-1.79985-0.47775-0.56577-0.15534-1.48623-0.42459-2.04323-0.60057-0.55905-0.17197-1.55459-0.49747-2.21468-0.72712-0.66347-0.22301-2.14593-0.75754-3.29302-1.1862-1.49907-0.5546-2.12043-0.80807-2.21067-0.9137-0.07366-0.07555-0.14109-0.22637-0.15599-0.33904-0.01024-0.10863 0.026-0.54092 0.08685-0.95911 0.06153-0.41953 0.22389-1.43901 0.37023-2.27131s0.32247-1.79976 0.38776-2.15065c0.07525-0.35417 0.25703-1.22033 0.41891-1.92799 0.15851-0.70101 0.43059-1.84866 0.61375-2.54558 0.17314-0.69363 0.51882-1.92096 0.75701-2.72693 0.2362-0.80532 0.64808-2.09771 0.90348-2.87498 0.25806-0.76926 0.67015-1.93639 0.91443-2.58909 0.2456-0.65204 0.66202-1.7252 0.93031-2.38583 0.27031-0.66461 0.74821-1.79351 1.06341-2.52059 0.31781-0.71909 1.1437-2.43502 1.83571-3.80631 0.69471-1.37663 1.58109-3.05369 1.97409-3.74315 0.39495-0.68016 1.0212-1.73922 1.39324-2.34747 0.37406-0.61227 0.99064-1.58607 1.36926-2.17098 0.37994-0.58425 1.07133-1.60376 1.53953-2.27364 0.46822-0.66987 0.91031-1.30118 0.98866-1.40352 0.11717-0.15614 0.14917-0.16668 0.19742-0.05723 0.02838 0.07274 0.04638 0.24535 0.03522 0.38323-0.01051 0.13658 0.03655 0.74106 0.10494 1.34295 0.06175 0.59854 0.19395 1.60314 0.28755 2.2311 0.09362 0.62797 0.30102 1.83405 0.44781 2.67743 0.15613 0.84143 0.45338 2.25637 0.6606 3.14864 0.21059 0.88893 0.52308 2.14136 0.70058 2.78498 0.18021 0.63829 0.32841 1.27381 0.32788 1.41706 0.00385 0.22388-0.0956 0.44738-0.91164 2.02478-0.50332 0.97088-1.24257 2.50193-1.64696 3.39257-0.40308 0.89133-0.94208 2.13793-1.19157 2.7613-0.25286 0.63004-0.63019 1.58608-0.83807 2.12699-0.20722 0.53959-0.54658 1.49645-0.75676 2.12129-0.21619 0.62019-0.6582 1.94909-0.98771 2.9493-0.33084 0.99284-0.66107 2.00771-0.73592 2.24862-0.07686 0.24157-0.12449 0.50459-0.10948 0.59059 0.01238 0.078 0.09785 0.20624 0.18554 0.2772 0.10432 0.07767 0.69935 0.24111 1.57011 0.44023 0.77292 0.17475 2.03453 0.43929 2.79622 0.58337 0.76768 0.14542 2.10209 0.36825 2.96041 0.50268 0.86036 0.12713 2.13032 0.29908 2.81895 0.37958 0.69265 0.07586 1.87086 0.19485 2.60753 0.25954 0.74467 0.06205 2.02225 0.15274 2.84162 0.19576 0.82003 0.0417 2.41697 0.07827 3.55496 0.08515 1.1353 0.01221 2.62849-0.00357 3.31883-0.02566 0.68435-0.02677 1.84326-0.08777 2.56966-0.13172 0.72775-0.04994 1.82346-0.14113 2.43331-0.19885 0.61518-0.05501 1.69502-0.18094 2.41094-0.27021 0.71395-0.09531 1.85322-0.26298 2.53323-0.3704 0.68201-0.1114 1.81613-0.31508 2.52887-0.45102 0.70878-0.13794 1.95105-0.40385 2.76461-0.59406 0.81022-0.18354 2.20872-0.5408 3.11046-0.79 0.90173-0.24917 2.68077-0.80491 3.95228-1.23128 1.27217-0.42769 2.99752-1.05559 3.84426-1.39093 0.84144-0.33801 2.06396-0.84916 2.71065-1.13527 0.64937-0.29143 2.0884-0.97368 3.2018-1.52655 1.11072-0.54756 2.59672-1.32294 3.29315-1.72078 0.69706-0.39916 1.35392-0.73187 1.45324-0.74684 0.10069-0.02095 0.29841 0.02709 0.43407 0.09555zm-9.64505-42.20661c0.09311 0.04699 0.20853 0.18203 0.2514 0.30211 0.0442 0.12075 0.23163 0.78109 0.40761 1.47731 0.18598 0.69297 0.60971 2.13838 0.95621 3.20768 0.34049 1.07131 0.85463 2.56902 1.14699 3.32234 0.28304 0.75529 0.68769 1.77551 0.88975 2.26799 0.2034 0.48649 0.53901 1.25659 0.74324 1.7051 0.20287 0.44782 0.52678 1.13863 0.71189 1.53242 0.19175 0.39714 0.56672 1.15212 0.84261 1.67682 0.26856 0.52604 0.6642 1.27974 0.87863 1.66831s0.64866 1.15507 0.97776 1.70662c0.32312 0.5469 0.85559 1.41635 1.1795 1.92526 0.32259 0.50824 0.85395 1.31708 1.17001 1.78866 0.32072 0.47556 1.02266 1.46227 1.56164 2.18986 0.53032 0.73152 1.37779 1.81672 1.86928 2.41686 0.4928 0.6008 1.27232 1.50983 1.72353 2.01121 0.45784 0.5114 1.25751 1.37055 1.77787 1.91351 0.52167 0.54361 1.374 1.39761 1.89786 1.89726 0.52181 0.50366 1.42947 1.35384 2.02579 1.88843 0.59169 0.53388 1.64772 1.4373 2.35119 2.00757s1.63486 1.30731 2.06739 1.63737c0.43984 0.33212 1.21064 0.89797 1.71967 1.25834 0.50303 0.35897 1.37032 0.95187 1.91465 1.31833 0.54835 0.36182 1.48027 0.95561 2.07257 1.3196s1.74978 1.03988 2.57092 1.506c0.90089 0.51305 2.32003 1.24255 3.59766 1.86225 1.16391 0.56068 2.5494 1.20144 3.08159 1.42331 0.53286 0.22383 1.57471 0.63945 2.3099 0.92535 0.7365 0.28657 1.97612 0.7369 2.74604 0.99364 0.77458 0.26072 1.91591 0.62142 2.53353 0.80292 0.61898 0.18219 1.3111 0.4013 1.53195 0.49274 0.22021 0.09274 0.3971 0.18201 0.38971 0.19667-0.01073 0.02127-0.43174 0.36285-0.92958 0.75743-0.50121 0.39792-1.30293 0.99126-1.77723 1.32597-0.47295 0.32871-1.24842 0.84353-1.72256 1.13828-0.47151 0.30275-1.53656 0.9251-2.3658 1.3944-0.82724 0.462-2.03691 1.10315-2.68637 1.42121-1.03662 0.50653-1.23477 0.5751-1.60788 0.57703l-0.42976-0.0016-1.2227-0.52022c-0.73507-0.31253-2.58001-1.20355-4.62699-2.23655-2.03766-1.0283-3.84509-1.98044-4.51723-2.37805-0.61362-0.3614-1.61281-0.96409-2.22108-1.33613-0.60693-0.37137-1.64517-1.03883-2.30582-1.47571-0.66131-0.44551-1.62962-1.10941-2.15191-1.48314-0.52164-0.37503-1.41934-1.03665-1.99338-1.47652-0.57336-0.4379-1.43235-1.11334-1.90131-1.50018-0.47829-0.38488-1.18573-0.9705-1.57759-1.3051-0.38654-0.33191-1.18146-1.0318-1.75986-1.5523-0.57842-0.52051-1.43625-1.32391-1.9136-1.78675-0.47465-0.46814-1.29381-1.28539-1.82616-1.82105-0.52305-0.53764-1.37186-1.4416-1.88148-2.00582-0.51095-0.56489-1.48025-1.67984-2.15356-2.47522-0.67195-0.80137-1.92996-2.40242-2.78718-3.55762-0.86056-1.15185-2.01452-2.77719-2.55778-3.61205-0.55126-0.83223-1.321-2.03506-1.70241-2.67142-0.38874-0.63843-0.92967-1.55722-1.20041-2.03929-0.27735-0.48541-0.74524-1.34065-1.04299-1.90144-0.29641-0.56011-0.82299-1.58344-1.1669-2.27101-0.33791-0.68617-0.82119-1.70604-1.07429-2.26267-0.25646-0.55329-0.66344-1.48958-0.90845-2.0755-0.25234-0.58457-0.694-1.68692-0.98767-2.44758-0.295-0.76132-0.76792-2.05632-1.05401-2.88491s-0.68458-2.06601-0.8899-2.75702l-0.37578-1.25932 0.12375-0.30805 0.11507-0.30739 1.1946-0.53192c0.65739-0.29405 1.65175-0.73013 2.21833-0.97319 0.56323-0.23645 1.63353-0.66757 2.37748-0.95129 0.74197-0.28309 1.77679-0.66703 2.29048-0.84501 0.73721-0.26044 0.97396-0.31621 1.10161-0.24512zm72.25787 21.58902c0.04656 0.02349 0.18719 0.18461 0.30849 0.35761 0.12995 0.16906 0.51065 0.64154 0.8496 1.05454 0.33697 0.40371 0.9876 1.20766 1.44584 1.78435 0.45429 0.5747 1.18624 1.55149 1.63169 2.1668s1.08041 1.51647 1.41105 2.00875c0.33399 0.48893 0.65714 1.02251 0.71319 1.18259 0.05671 0.15879 0.10048 0.39615 0.09732 0.53139s-0.18922 0.71222-0.44409 1.34624c-0.23679 0.61142-0.70463 1.71706-1.02386 2.45545-0.37827 0.8521-1.0993 2.32056-1.96496 3.98305-0.76836 1.46963-1.69204 3.14791-2.08489 3.7974-0.3915 0.6435-1.02751 1.64589-1.40613 2.23081-0.38528 0.58155-0.94535 1.407-1.2461 1.83432-0.30142 0.42861-0.91076 1.24921-1.34466 1.82462-0.44257 0.57933-1.0337 1.33736-1.32083 1.68809-0.28647 0.34943-0.94428 1.12051-1.45752 1.71429-0.51523 0.5944-1.35156 1.52743-1.8593 2.08054-0.51242 0.54912-1.32706 1.38961-1.81791 1.87282-0.48617 0.48394-1.33002 1.28967-1.87488 1.7907-0.54622 0.50034-1.31698 1.18773-1.70866 1.52409-0.39971 0.33899-1.13753 0.95123-1.64679 1.3651-0.50721 0.40987-1.34114 1.05708-1.8509 1.4323-0.51113 0.3812-1.38827 1.00824-1.9467 1.39063-0.5671 0.38631-1.49281 0.99388-2.06918 1.36217-0.57301 0.36169-1.69755 1.03911-2.50143 1.49452-0.79856 0.45809-2.00764 1.11125-2.69184 1.45848-0.68223 0.3466-1.75153 0.86169-2.37755 1.14651-0.62805 0.28884-1.61641 0.72291-2.20764 0.96524-0.58455 0.23903-1.83761 0.72144-2.781 1.06639-0.93608 0.34368-2.46839 0.84702-3.39286 1.1181-0.92511 0.26907-2.10232 0.60117-2.62383 0.7285-0.51753 0.13599-1.51648 0.36948-2.21998 0.52346-0.70283 0.15264-1.90833 0.38535-2.68703 0.51971-0.7794 0.13569-2.01271 0.32102-2.74995 0.41289-0.73657 0.09054-1.90835 0.2168-2.60947 0.27348-0.69182 0.05473-1.79609 0.12327-2.4418 0.14952-0.64574 0.02624-1.87377 0.04569-2.71992 0.04255-0.85082-0.00717-2.06335-0.03165-2.69352-0.06264-0.63155-0.02498-1.8212-0.11135-2.64245-0.18705-0.82525-0.07102-2.22049-0.23944-3.10682-0.36797-0.88169-0.12453-2.11489-0.32966-2.74406-0.45194-0.62919-0.12226-1.51863-0.31078-1.98197-0.41442-0.46203-0.10301-1.30809-0.31468-1.87382-0.47003-0.56979-0.1507-1.55813-0.44086-2.19773-0.63178-0.63756-0.19827-1.73623-0.56412-2.44623-0.81061-0.70665-0.25315-1.78853-0.6556-2.39594-0.89704-0.61407-0.2448-1.82943-0.76636-2.70812-1.15804-0.94522-0.42526-2.31924-1.09864-3.37653-1.66558-0.99812-0.52873-2.12507-1.17587-2.55642-1.45863-0.41804-0.28272-0.76562-0.52321-0.77089-0.53921-0.00797-0.01069 0.61019-0.14764 1.36564-0.30209 0.75213-0.1478 1.92703-0.39596 2.6092-0.54733 0.67549-0.14807 1.69646-0.38881 2.26466-0.53261 0.56955-0.14982 1.50527-0.4002 2.08423-0.56528 0.57558-0.15844 2.07305-0.60927 3.32375-0.99442l2.2766-0.7018 0.39351 0.07343c0.21107 0.03476 0.88191 0.24312 1.48277 0.46122 0.60151 0.21343 1.67759 0.56124 2.38842 0.76975 0.71479 0.21053 1.86366 0.51662 2.56598 0.67581 0.70033 0.16318 1.71558 0.38348 2.26555 0.48412 0.54066 0.10261 1.58341 0.27173 2.30396 0.36834 0.72386 0.10329 1.90734 0.23827 2.62804 0.29492 0.71736 0.0633 1.86244 0.13216 2.54397 0.15069 0.6795 0.0225 1.6449 0.03407 2.14466 0.02593 0.49973-0.00813 1.362-0.03691 1.90778-0.0602 0.55444-0.02727 1.59079-0.10337 2.30661-0.166 0.71849-0.06798 1.80498-0.19054 2.40695-0.27225 0.60526-0.07838 1.56993-0.23072 2.13733-0.33656 0.56806-0.10382 1.33082-0.24625 1.69022-0.32685 0.36541-0.07594 1.193-0.27075 1.8472-0.42957 0.6462-0.15618 1.77404-0.46649 2.49575-0.68301s1.91047-0.60787 2.63637-0.87239c0.7359-0.26777 1.75477-0.65976 2.27058-0.8684 0.51915-0.21525 1.36402-0.58326 1.87994-0.81853s1.37693-0.6485 1.90829-0.91438c0.53134-0.26589 1.54942-0.80846 2.25385-1.20894 0.7084-0.39848 1.82821-1.06658 2.49269-1.48055 0.66319-0.42129 1.68312-1.09977 2.26828-1.5087 0.58384-0.40959 1.42499-1.02811 1.86536-1.37163 0.44366-0.33682 1.14601-0.90188 1.56838-1.24944 0.42371-0.34689 1.20105-1.01095 1.72849-1.47406 0.53075-0.46974 1.38255-1.26479 1.90746-1.77588 0.51693-0.50845 1.28004-1.28317 1.69277-1.72737 0.41806-0.44151 1.10315-1.20386 1.5281-1.69868 0.4269-0.49546 1.16984-1.39883 1.64514-2.0067 0.47597-0.60591 1.24207-1.64777 1.7049-2.30702 0.46156-0.66656 1.20665-1.79582 1.66036-2.51304 0.45044-0.72391 1.25171-2.09346 1.78295-3.04361 0.71236-1.28262 1.1587-2.16709 1.73039-3.42892 0.42055-0.93588 0.96089-2.18848 1.19495-2.78126 0.2334-0.59148 0.55501-1.43378 0.70521-1.87362 0.15487-0.43586 0.43377-1.25968 0.61241-1.82202 0.17466-0.56434 0.49047-1.64322 0.69577-2.38736 0.20335-0.75016 0.39049-1.44505 0.41753-1.54823 0.03112-0.12781 0.108-0.2008 0.24809-0.24693 0.11008-0.03622 0.23138-0.04514 0.27793-0.02164zm-34.15351-22.08659c0.14631 0.07383 0.20998 0.15267 0.22816 0.28534 0.00762 0.10066-0.07519 0.50942-0.19059 0.90679-0.11339 0.39333-0.36565 1.21725-0.56379 1.82816-0.20213 0.60889-0.53962 1.59841-0.75772 2.19924-0.21279 0.60351-0.61777 1.65074-0.89345 2.326-0.27837 0.68058-0.87639 2.03424-1.33106 3.01131-0.47956 1.0296-1.22126 2.49934-1.76194 3.49143-0.51589 0.94618-1.06052 1.92293-1.20738 2.17425-0.14948 0.24332-0.55298 0.88744-0.88545 1.43055-0.33781 0.54042-0.8237 1.29819-1.08295 1.683-0.2613 0.38882-0.78512 1.14242-1.16493 1.6867-0.38178 0.53825-1.17791 1.59668-1.77237 2.3514-0.59113 0.75803-1.53283 1.89985-2.09288 2.5434-0.55807 0.64291-1.5094 1.68811-2.11339 2.31615-0.59865 0.63073-1.29288 1.3351-1.53426 1.56541-0.24537 0.22829-0.49399 0.43655-0.56139 0.46763-0.06473 0.02575-0.19193 0.00663-0.29034-0.04303-0.09445-0.04767-0.4935-0.41762-0.88309-0.82282-0.3856-0.40986-1.02335-1.09716-1.4062-1.52564-0.3875-0.43588-1.05223-1.20855-1.48341-1.72651-0.42515-0.51329-1.17059-1.45019-1.64998-2.07758-0.47606-0.63075-1.21654-1.64358-1.63666-2.25944-0.4215-0.60989-1.02712-1.51626-1.33513-2.00379-0.31333-0.49022-0.7922-1.26086-1.06036-1.70828-0.26887-0.4494-0.77131-1.32875-1.11211-1.95633-0.34948-0.62692-0.9197-1.72906-1.27685-2.44332-0.34913-0.71688-0.85484-1.79477-1.11581-2.38874-0.25834-0.58597-0.66845-1.56891-0.91873-2.17083-0.24228-0.60455-0.67761-1.79548-0.9743-2.64276-0.29535-0.8466-0.72296-2.14542-0.94874-2.88516-0.2338-0.73711-0.57652-1.91971-0.76843-2.63731-0.26747-0.99443-0.32755-1.32512-0.25975-1.45948 0.05772-0.11438 0.19801-0.21379 0.39614-0.28237 0.17211-0.05666 0.84367-0.22673 1.48985-0.36958 0.64883-0.14818 1.97503-0.41176 2.93311-0.58075 0.96143-0.17235 2.56738-0.41158 3.56521-0.52715 0.99654-0.11623 2.39757-0.25694 3.11334-0.30626 0.71043-0.05201 1.78335-0.11131 2.38775-0.13173 0.59774-0.02378 1.69449-0.03769 2.44405-0.03823 0.74091 0.0034 1.96009 0.03126 2.69622 0.0573 0.73878 0.03405 2.04969 0.12154 2.91622 0.20005 0.86656 0.07852 2.10004 0.207 2.74799 0.29202 0.64731 0.08634 1.90588 0.27758 2.79543 0.43946 0.88689 0.15387 2.26909 0.42752 3.05864 0.60565 0.79023 0.17684 2.03102 0.48262 2.74923 0.67649 0.72284 0.19458 1.40303 0.39432 1.5121 0.44936zm1.9182-13.28182c0.23409 0.11813 0.34832 0.21581 0.42235 0.37666 0.05489 0.1128 0.10142 0.31819 0.10094 0.44812 0.00484 0.13261-0.06391 0.88725-0.14414 1.68116-0.08689 0.79055-0.22188 1.97402-0.31226 2.63264-0.0877 0.6533-0.28348 1.87785-0.43319 2.72017-0.1437 0.84031-0.30338 1.67255-0.34867 1.85162-0.06149 0.23761-0.12393 0.36133-0.24158 0.46549-0.11496 0.09884-0.23633 0.12106-0.41872 0.08239-0.14317-0.02718-0.82473-0.21427-1.52227-0.40943-0.69554-0.19578-1.81649-0.4811-2.49553-0.63356-0.67838-0.15376-1.65436-0.36592-2.15903-0.46375-0.50934-0.10181-1.49744-0.2734-2.19395-0.39123-0.69182-0.11384-1.85986-0.27942-2.59112-0.36809-0.73124-0.08866-1.94141-0.21041-2.68009-0.2711-0.74736-0.05677-1.89441-0.13495-2.55791-0.16274-0.66351-0.0278-1.8807-0.05628-2.71353-0.05937-0.82752-0.00041-2.15085 0.02266-2.94116 0.05438-0.79167 0.03103-1.95525 0.10136-2.57973 0.15167-0.63113 0.04696-1.63026 0.14187-2.22683 0.21293-0.59389 0.06575-1.59114 0.19333-2.21577 0.2836-0.62797 0.09362-1.63069 0.25848-2.21874 0.36557-0.59607 0.10972-1.47952 0.28302-1.96095 0.38714-0.48211 0.10214-1.53975 0.34944-2.35269 0.55165-0.80959 0.19885-2.24088 0.59131-3.17539 0.86901-0.92781 0.27441-2.42877 0.76855-3.32212 1.09371-0.892 0.31917-2.16108 0.80683-2.82637 1.07687-0.65595 0.26809-1.62623 0.67955-2.14947 0.91617-0.52655 0.22991-1.58846 0.73034-2.3621 1.11591-0.7803 0.38221-1.85239 0.92925-2.38914 1.21909s-1.52825 0.84582-2.19597 1.23977c-0.66842 0.39196-1.63071 0.9827-2.14428 1.30263-0.5089 0.32391-1.39387 0.9003-1.95963 1.28729-0.56374 0.37971-1.71682 1.20626-2.56267 1.83412-0.84517 0.62983-2.05197 1.57279-2.68285 2.08881-0.62957 0.52336-1.50714 1.267-1.95035 1.6558-0.43918 0.39082-1.1545 1.03444-1.58304 1.43063-0.43125 0.4015-0.95738 0.87862-1.16726 1.05973-0.21124 0.1871-0.39897 0.32764-0.42558 0.31422-0.03061-0.01544-0.05289-0.47724-0.05618-1.02627-0.00861-0.55171 0.0199-1.587 0.04785-2.3038 0.02866-0.71482 0.10644-1.92717 0.17122-2.69047 0.06815-0.76665 0.18722-1.9715 0.27315-2.6841 0.08325-0.70729 0.25201-1.84199 0.36845-2.51251 0.11709-0.67182 0.2896-1.556 0.38237-1.95812 0.15028-0.63506 0.20542-0.77076 0.40895-1.03188 0.14256-0.17669 0.63446-0.58598 1.17759-0.97772 0.52042-0.36984 1.29665-0.916 1.7275-1.21422 0.43019-0.29692 1.37263-0.92436 2.09526-1.38741 0.71463-0.46042 1.91601-1.19751 2.65586-1.63186s1.83553-1.05458 2.4357-1.37751 1.53944-0.81512 2.09749-1.09422c0.55207-0.28048 1.55593-0.75847 2.22803-1.07178 0.67607-0.30464 1.71517-0.76321 2.31978-1.01881 0.6006-0.25762 1.72694-0.70716 2.49828-1.00879s2.48391-0.90426 3.79676-1.33647c1.32085-0.43485 2.91577-0.93332 3.54075-1.11355 0.62759-0.17224 1.74804-0.4679 2.48031-0.6524 0.73757-0.18183 2.03924-0.47617 2.88607-0.65623 0.85284-0.1754 2.24233-0.43877 3.08904-0.57886 0.84937-0.14542 2.22998-0.34819 3.07256-0.45701 0.84393-0.10814 2.0884-0.24944 2.76556-0.31156 0.68182-0.06141 1.67157-0.1477 2.21005-0.183 0.53384-0.03601 1.53078-0.08695 2.20982-0.1164 0.68038-0.02878 2.17161-0.05058 3.31094-0.04968 1.14065 0.00157 2.62636 0.02709 3.30254 0.05623 0.66881 0.03047 1.74998 0.08712 2.39474 0.13881 0.64214 0.0437 1.60527 0.12588 2.13876 0.17983s1.33738 0.14088 1.78758 0.1912c0.44156 0.05426 1.38121 0.18301 2.08576 0.28489 0.70251 0.10589 1.88778 0.30018 2.63819 0.43024 0.75104 0.13868 2.14253 0.41702 3.09456 0.62378 0.94798 0.21138 1.87123 0.44868 2.04551 0.52996zm18.5258 7.02932c1.12181 0.59117 2.46299 1.31974 2.97359 1.62411 0.51789 0.30642 1.40536 0.84605 1.98171 1.20199 0.57103 0.35325 1.6877 1.07363 2.47727 1.60226 0.78959 0.52864 1.98513 1.36057 2.66358 1.8515 0.67777 0.49222 1.74882 1.29973 2.38795 1.79247 0.62982 0.49471 1.68137 1.34412 2.32896 1.89287 0.65161 0.54411 1.65575 1.42134 2.23417 1.94185 0.5704 0.52313 1.46807 1.36665 1.99191 1.86629 0.52181 0.50366 1.37415 1.35765 1.89583 1.90128 0.52566 0.54563 1.37976 1.4656 1.90862 2.04457 0.52022 0.58291 1.29718 1.45729 1.71512 1.94855 0.41928 0.48527 1.04682 1.2325 1.39706 1.64957 0.3469 0.42369 1.26662 1.61044 2.03769 2.63869 0.7724 1.02893 1.81507 2.48795 2.32263 3.23808 0.50824 0.75211 1.25624 1.89223 1.65896 2.53934 0.40138 0.63977 1.12052 1.83708 1.58856 2.65237 0.46736 0.81658 1.09613 1.94827 1.39387 2.50905 0.2971 0.56209 0.78592 1.51804 1.08219 2.1181 0.30226 0.60146 0.82453 1.69942 1.15892 2.44222 0.33841 0.73816 0.88276 1.99745 1.21092 2.79552 0.32687 0.79742 0.85881 2.1606 1.17545 3.01795 0.31927 0.86535 0.81625 2.32104 1.11333 3.2336 0.2931 0.91722 0.67283 2.19188 0.85301 2.83018 0.17888 0.63764 0.48513 1.77677 0.6782 2.53173 0.1858 0.75292 0.5012 2.11861 0.69101 3.03545 0.19119 0.91087 0.44145 2.23701 0.56143 2.94174 0.11932 0.70603 0.27922 1.78465 0.36888 2.39727 0.13441 0.9473 0.13567 1.14986 0.02827 1.36268s-0.20692 0.28105-0.73342 0.49764c-0.33302 0.14403-1.10968 0.44297-1.72552 0.68119-0.6125 0.2316-2.13691 0.75898-3.37971 1.16813s-2.78237 0.89048-3.42867 1.0733-1.84677 0.49487-2.67303 0.69703c-0.8216 0.20614-2.22797 0.52607-3.11549 0.71066-0.89616 0.18527-2.33102 0.4591-3.19371 0.60447-0.86603 0.14206-2.53061 0.37839-3.69914 0.52465-1.17317 0.13887-2.98478 0.31939-4.04114 0.39876-1.05034 0.07736-2.60642 0.16489-3.46002 0.18972-0.85426 0.02613-2.36078 0.04185-3.3475 0.03286-0.98408-0.00099-2.46109-0.04376-3.2838-0.08014s-2.52727-0.16063-3.79681-0.26727c-1.26751-0.11066-2.45497-0.24764-2.64733-0.30631l-0.34143-0.10054 0.05772-0.11438c0.03357-0.06653 0.22477-0.23705 0.4232-0.38554 0.19776-0.1472 0.77451-0.61878 1.2865-1.05129 0.50462-0.43119 1.14432-0.98783 1.42109-1.23867 0.27476-0.24681 0.9273-0.85539 1.45218-1.35316 0.5222-0.49244 1.39293-1.36467 1.93804-1.92902 0.54579-0.56564 1.36989-1.44805 1.8269-1.96673 0.45964-0.51067 0.90378-0.97742 0.99525-1.0297 0.08347-0.04965 0.24697-0.11569 0.36234-0.14924 0.11405-0.03421 0.7185-0.06795 1.35085-0.08094 0.62967-0.00767 1.7811-0.04069 2.56474-0.06909 0.78036-0.03511 1.86662-0.09434 2.41243-0.13098 0.54647-0.03794 1.45291-0.11454 2.01743-0.16175 0.56187-0.05522 1.64634-0.17378 2.40292-0.26759 0.75524-0.08781 1.83381-0.2344 2.39046-0.31894 0.56599-0.0865 1.42805-0.23057 1.93009-0.32265 0.49807-0.09409 1.4742-0.2857 2.17501-0.43434 0.69812-0.14332 1.70638-0.37209 2.24789-0.50268 0.54149-0.13059 1.20108-0.30003 1.47256-0.38498 0.26816-0.07831 0.56237-0.18514 0.65319-0.23613 0.11284-0.06819 0.1651-0.1453 0.17628-0.28317 0.01035-0.09989-0.12603-0.69607-0.30228-1.31237-0.17958-0.62628-0.61495-1.9858-0.97089-3.0265-0.34993-1.03605-0.89539-2.53785-1.21029-3.32256-0.31221-0.79003-0.79159-1.95648-1.06575-2.59046-0.27547-0.64132-0.75063-1.69044-1.05872-2.33324-0.29943-0.64673-0.88803-1.83154-1.29614-2.6366-0.41611-0.80243-1.19627-2.25247-1.74436-3.21995-0.54675-0.97347-1.3168-2.2749-1.71291-2.89867-0.3908-0.62108-1.03153-1.58357-1.41523-2.14266-0.38836-0.55981-1.12347-1.58327-1.63661-2.27276-0.51315-0.6895-1.28695-1.69912-1.72534-2.23911-0.43573-0.54532-1.19391-1.45691-1.68418-2.02308-0.48227-0.5688-1.26984-1.46187-1.74233-1.974-0.46847-0.51677-1.50519-1.60066-2.30641-2.4038-0.79921-0.80718-1.95834-1.93282-2.57854-2.49947-0.61422-0.56527-1.58248-1.42439-2.145-1.91019-0.56187-0.4871-1.44463-1.21798-1.95616-1.62631-0.51685-0.41101-1.40906-1.10989-1.98512-1.54248-0.57671-0.43455-1.51562-1.11697-2.08916-1.51818-0.57417-0.39991-1.56582-1.0572-2.20195-1.46332-0.62878-0.40745-1.70639-1.06305-2.39453-1.45539-0.68015-0.39498-1.33227-0.79582-1.44651-0.8935-0.14013-0.12246-0.20165-0.24528-0.20639-0.40452-0.0022-0.12461 0.02436-0.27978 0.05859-0.3476 0.03155-0.06251 0.23461-0.91793 0.4568-1.90054 0.21753-0.9866 0.5283-2.50523 0.68476-3.37082s0.3767-2.22132 0.48886-2.99912c0.11484-0.78312 0.23269-1.47961 0.2696-1.55275s0.11982-0.14813 0.18454-0.17389c0.10208-0.03359 0.51574 0.16849 2.16222 1.03942zm-70.11752-37.99951c0.02661 0.01343-0.14269 0.74905-0.36852 1.63301-0.22715 0.88997-0.54334 2.0588-0.70593 2.60255-0.15656 0.54175-0.42272 1.52218-0.57638 2.17392-0.15768 0.64971-0.42323 1.83401-0.58673 2.6243-0.16221 0.79761-0.40411 2.06397-0.53354 2.82638-0.12871 0.75773-0.29594 1.82649-0.37121 2.36256-0.0773 0.54009-0.19927 1.09262-0.26707 1.22697-0.06846 0.13565-0.54683 0.67023-1.06313 1.1907-0.5183 0.5211-1.24736 1.28128-1.63069 1.69362-0.3826 0.40766-0.98545 1.08639-1.34947 1.5101-0.36601 0.41441-1.00854 1.19824-1.43762 1.73767-0.42776 0.5401-1.05446 1.36528-1.402 1.83571-0.34424 0.47713-0.89952 1.2666-1.23718 1.76706-0.33563 0.49645-0.91393 1.38445-1.28323 1.97407-0.54088 0.85351-0.98434 1.67939-2.24079 4.15593-1.39747 2.7692-1.60907 3.22817-2.07673 4.46571-0.28731 0.76117-0.69183 1.86036-0.89722 2.44923-0.20735 0.57957-0.54752 1.5744-0.75707 2.19794-0.20619 0.62686-0.54602 1.71363-0.75383 2.4098-0.20314 0.70015-0.49582 1.82244-0.63954 2.49416-0.15109 0.67305-0.34145 1.69841-0.43222 2.2784s-0.21145 1.50367-0.26216 2.05718c-0.05269 0.55414-0.12059 1.43937-0.15052 1.96496-0.02327 0.52228-0.08159 1.51746-0.12745 2.20359-0.04785 0.68675-0.09112 1.75461-0.10874 2.37152-0.01228 0.6196-0.00557 1.67769 0.0126 2.35269 0.01479 0.67833 0.066 1.78053 0.11283 2.44835 0.04749 0.66978 0.16434 1.85684 0.2554 2.63208 0.09573 0.77922 0.27696 2.03718 0.41142 2.78924 0.13309 0.75805 0.34492 1.84953 0.47268 2.43631 0.13109 0.58017 0.37923 1.58648 0.54873 2.23273 0.17018 0.64496 0.58358 1.99503 0.91565 3.00367 0.33208 1.00865 0.80825 2.32367 1.05051 2.92821 0.24033 0.59853 0.64258 1.54414 0.89504 2.10209 0.24846 0.55593 0.67946 1.47101 0.95855 2.02905 0.27711 0.56203 0.82893 1.59816 1.22476 2.29853 0.39914 0.71042 0.96721 1.67463 1.26794 2.15348 0.30005 0.47682 0.81814 1.2723 1.15343 1.76858 0.33466 0.48761 0.88814 1.26255 1.21959 1.71685 0.33944 0.45168 1.2388 1.56304 1.99568 2.46731 0.76152 0.90498 1.40421 1.69823 1.42934 1.75096 0.02841 0.05941 0.01004 0.16195-0.03684 0.22841-0.04755 0.06778-0.18233 0.11659-0.31225 0.11608-0.1279-0.00445-0.62981 0.04765-1.11774 0.10846-0.48331 0.06818-1.4998 0.18101-2.249 0.26019-0.75249 0.06916-2.07811 0.17617-2.94249 0.23559-0.8617 0.0541-2.2125 0.12172-2.99615 0.15013l-1.43734 0.04397-0.45831-0.19958-0.46567-0.20161-0.39563-0.5718c-0.22072-0.31329-0.73884-1.09544-1.14691-1.73191-0.4094-0.63715-1.07629-1.72965-1.47549-2.42674-0.40316-0.69908-0.94587-1.67721-1.21455-2.17657-0.26129-0.50401-0.69054-1.35977-0.95904-1.89912-0.26051-0.54199-0.70207-1.48907-0.97231-2.10105-0.27157-0.61266-0.70215-1.64433-0.95762-2.2889-0.26144-0.64592-0.65987-1.72811-0.89719-2.40859-0.23203-0.67781-0.61548-1.84255-0.84658-2.58497-0.23112-0.74243-0.55738-1.87832-0.72156-2.52188-0.16687-0.63825-0.43589-1.75859-0.5931-2.48211-0.15254-0.72946-0.38353-1.86234-0.497-2.52702-0.11815-0.65874-0.28619-1.69476-0.36659-2.29605-0.08704-0.60464-0.22086-1.7085-0.29272-2.45565-0.07851-0.75052-0.16322-1.79623-0.19654-2.33536-0.03268-0.5305-0.08093-1.53277-0.10704-2.21844-0.01744-0.68634-0.03513-1.84175-0.03513-2.56599 0.00668-0.72087 0.02752-1.85016 0.05729-2.51431 0.0278-0.66351 0.08631-1.70871 0.13588-2.32283 0.04159-0.61148 0.13869-1.64387 0.20841-2.3012 0.07041-0.65535 0.22533-1.82877 0.3428-2.60388 0.11418-0.78182 0.32736-2.03095 0.47139-2.77932 0.14535-0.74103 0.38407-1.87216 0.52901-2.50991 0.14628-0.63708 0.47419-1.91845 0.73013-2.83896 0.2533-0.92851 0.63982-2.21366 0.86143-2.8578 0.21495-0.6475 0.53954-1.57176 0.7199-2.06147 0.1817-0.48903 0.56037-1.44442 0.83606-2.11968 0.27634-0.67656 0.8899-2.08746 1.37547-3.12575 0.62265-1.34953 1.17037-2.43488 1.89348-3.7521 0.55746-1.01535 1.24627-2.23809 1.53388-2.71875 0.28895-0.47998 0.77427-1.27302 1.08525-1.76027 0.31163-0.48855 0.84297-1.29677 1.18065-1.79723 0.33895-0.49315 0.95181-1.35704 1.35967-1.92052 0.41049-0.55549 1.0914-1.45175 1.51246-1.97522 0.41706-0.53216 1.18136-1.45143 1.7013-2.05516 0.51792-0.59972 1.28602-1.46369 1.70877-1.91455 0.42477-0.45147 1.09831-1.15456 1.49491-1.55354 0.39926-0.4043 1.14748-1.12308 1.65631-1.60225 0.51414-0.47649 1.34042-1.22097 1.83907-1.65354 0.49731-0.43325 1.3261-1.12976 1.84201-1.54694 0.51455-0.4112 1.44669-1.13399 2.06741-1.60339 0.62468-0.46074 1.5713-1.13619 2.10633-1.49865 0.52971-0.36515 1.14016-0.76132 1.35182-0.88312 0.2057-0.12318 0.39789-0.20974 0.42449-0.19631zm55.60842 9.13845c1.81811 0.94419 2.98503 1.59149 3.60518 1.98954 0.5032 0.31902 1.36057 0.89521 1.90282 1.279 0.54427 0.37978 1.42734 1.03401 1.95882 1.45241 0.64906 0.50946 1.02755 0.85732 1.14945 1.04234 0.09935 0.15362 0.2052 0.35722 0.22285 0.45123 0.02565 0.09137 0.11625 0.81463 0.19927 1.60582 0.08236 0.79249 0.20753 2.25076 0.28517 3.2345 0.0736 0.98837 0.15398 2.49579 0.18544 3.35274 0.02481 0.85359 0.04754 2.44876 0.04349 3.54145-0.00741 1.0993-0.03509 2.629-0.07195 3.41306-0.03489 0.77676-0.10117 1.94317-0.14552 2.58661-0.0437 0.64214-0.16631 1.90362-0.26025 2.80077-0.10261 0.90107-0.27089 2.25633-0.39364 3.01544-0.1154 0.75778-0.32255 1.99498-0.46323 2.73999-0.14403 0.74837-0.44318 2.1811-0.6761 3.18498-0.2289 0.99924-0.56577 2.36119-0.75011 3.02413-0.17636 0.6603-0.51045 1.81505-0.73843 2.56109-0.23128 0.74274-0.61071 1.90797-0.84381 2.59138-0.23237 0.67874-0.64499 1.8072-0.91543 2.51179-0.27115 0.70261-0.68336 1.72779-0.91459 2.2753-0.23259 0.55349-0.70028 1.62244-1.03624 2.37744-0.34193 0.75361-1.13829 2.41104-1.77862 3.6799-0.64235 1.27288-1.4737 2.84089-1.84789 3.49312-0.36888 0.65492-0.97968 1.68337-1.35106 2.29032-0.37204 0.60825-0.9893 1.58674-1.36926 2.17098-0.37726 0.57893-0.94538 1.42033-1.25686 1.86892-0.3128 0.44126-0.90752 1.26923-1.32339 1.83535-0.41054 0.5688-1.08538 1.43982-1.4937 1.95133-0.40297 0.50087-1.20472 1.45802-1.77816 2.11482-0.56612 0.65886-1.49881 1.70679-2.06941 2.31832-0.67901 0.74037-1.10229 1.15256-1.23706 1.20137-0.15211 0.05341-0.27464 0.03828-0.47682-0.06375-0.15029-0.07584-0.69063-0.4403-1.20432-0.80464-0.51434-0.36305-1.29045-0.93158-1.72365-1.26035-0.4385-0.33144-1.15799-0.89646-1.60375-1.25321-0.4411-0.35277-1.25811-1.03209-1.81669-1.50255-0.55457-0.47512-1.06922-0.94343-1.13614-1.04229-0.10542-0.1383-0.10844-0.22492-0.03258-0.37523 0.05504-0.10907 0.45308-0.54734 0.89244-0.9781 0.43202-0.43284 1.16369-1.17169 1.6212-1.6517s1.32058-1.43958 1.92143-2.12762c0.60022-0.68672 1.47626-1.73819 1.95554-2.33739 0.47262-0.60256 1.20576-1.56261 1.63165-2.13538 0.41854-0.57144 1.10644-1.54765 1.52316-2.16507 0.41538-0.6181 1.11232-1.70154 1.54669-2.40687 0.63349-1.03702 1.10313-1.91477 2.3932-4.47116 1.24516-2.48061 1.71386-3.46232 2.11132-4.45493 0.2731-0.69658 0.70162-1.80368 0.94059-2.45907 0.24427-0.65272 0.61866-1.71538 0.83626-2.35486 0.21626-0.64683 0.54326-1.68167 0.72544-2.30063 0.18553-0.61564 0.50775-1.80975 0.71608-2.64916 0.21699-0.84335 0.51025-2.1222 0.66017-2.84254 0.14791-0.71973 0.36278-1.8829 0.48197-2.58539 0.11522-0.7045 0.2852-1.80522 0.36619-2.44189 0.07965-0.63734 0.21219-1.8821 0.29409-2.76531 0.07592-0.88785 0.16925-2.15744 0.20773-2.8289 0.03448-0.67348 0.07454-1.9566 0.09188-2.85401 0.01598-0.89809 0.00251-2.29333-0.0205-3.10093-0.01962-0.81094-0.07577-2.01912-0.11661-2.68554-0.04218-0.6671-0.14618-1.90609-0.22967-2.74926-0.08813-0.84715-0.2419-2.14298-0.35378-2.87698-0.10322-0.73793-0.28353-1.87859-0.40432-2.54533-0.11681-0.65806-0.33396-1.75223-0.4747-2.42903-0.14008-0.6781-0.3893-1.74842-0.54816-2.38931s-0.29259-1.22905-0.29426-1.31499l-0.00481-0.14594 2.68593 1.39384zm5.1038-12.77563c0.53336 0.26249 1.59201 0.82341 2.344 1.24798 0.758 0.42255 1.843 1.06023 2.41932 1.41616 0.57237 0.35393 1.46238 0.9282 1.97677 1.27793 0.51642 0.34571 1.45409 1.00749 2.08931 1.47823 0.6299 0.46806 1.50491 1.13825 1.93536 1.48564 0.43712 0.35076 1.17837 0.97183 1.65524 1.38268 0.47288 0.40884 1.23057 1.08994 1.67811 1.50601 0.45217 0.42344 1.1778 1.1284 1.61922 1.5731 0.44011 0.44404 1.16621 1.20098 1.61215 1.68636 0.44592 0.48537 1.27328 1.43188 1.83578 2.09959 0.5672 0.67171 1.42934 1.75096 1.92735 2.39442 0.48931 0.64411 1.23771 1.68095 1.65919 2.29083 0.42014 0.61588 1.05816 1.58367 1.41852 2.14936 0.35969 0.56698 1.02978 1.69284 1.48789 2.49141 0.45409 0.80321 1.17528 2.16508 1.6025 3.02486 0.42523 0.8604 1.0294 2.15655 1.34119 2.88127 0.31314 0.72541 0.82349 1.98592 1.1356 2.80258 0.30613 0.81201 0.78081 2.17298 1.04289 3.00947 0.2674 0.83917 0.60966 1.96979 0.75357 2.51135 0.14856 0.54554 0.40528 1.57457 0.56855 2.28277 0.16656 0.71489 0.40505 1.80648 0.52267 2.42656 0.12294 0.62275 0.29586 1.6095 0.38766 2.19148 0.09375 0.58801 0.24358 1.6866 0.3314 2.44182 0.09314 0.7579 0.21453 1.97899 0.27041 2.71808 0.05724 0.73978 0.12633 1.86939 0.15258 2.51511 0.02094 0.64303 0.04137 1.5979 0.04142 2.12691-0.00193 0.51971-0.02754 0.95734-0.05757 0.96724-0.032 0.01054-0.78423-0.70784-1.68307-1.59865-0.89486-0.8888-2.01019-1.97233-2.4823-2.40584-0.47144-0.4348-1.37924-1.24503-2.02346-1.80379-0.64623-0.55473-1.614-1.36187-2.15344-1.79095-0.5341-0.42639-1.16849-0.94179-1.40696-1.14056-0.23576-0.20407-0.49252-0.49555-0.58453-0.66044-0.086-0.1669-0.25244-0.73985-0.36039-1.27661-0.11461-0.53345-0.35135-1.5524-0.52265-2.25797-0.17659-0.70824-0.57062-2.07359-0.88086-3.04616-0.30687-0.96924-0.77494-2.31353-1.0336-2.99144-0.26266-0.67992-0.67268-1.6895-0.91714-2.25008-0.2411-0.55725-0.72569-1.58446-1.07487-2.28802-0.34852-0.70486-1.00826-1.93061-1.46235-2.73382-0.45607-0.80258-1.22166-2.05002-1.6954-2.7647-0.47637-0.72268-1.18748-1.75404-1.58858-2.28855-0.39444-0.53782-1.0436-1.38106-1.43824-1.86561-0.39928-0.48852-1.10712-1.32135-1.57554-1.85143-0.46444-0.52808-1.26744-1.39053-1.78122-1.91015-0.51511-0.51362-1.42856-1.41847-2.03802-2.00639-0.60678-0.59324-1.39761-1.32443-1.75894-1.63027-0.36262-0.31317-0.88474-0.74018-1.16979-0.94911-0.27973-0.20625-0.91638-0.65103-1.41685-0.98869-0.49645-0.33563-1.36055-0.8952-1.91693-1.24105-0.55508-0.3452-1.51572-0.92176-2.13202-1.27784-0.623-0.3528-1.98351-1.0794-3.03825-1.61167s-2.35969-1.15078-2.9032-1.37999c-0.54749-0.23122-1.51415-0.61393-2.15159-0.85214-0.64207-0.23892-1.71076-0.60136-2.37757-0.81436-0.66552-0.20568-1.60195-0.48299-2.06723-0.60601-0.47126-0.12766-1.41653-0.35769-2.10086-0.51282-0.67838-0.15376-1.7736-0.37436-2.42147-0.48603-0.65319-0.11436-1.72732-0.27094-2.39595-0.3547-0.66331-0.08107-1.54314-0.17296-1.95341-0.2098-0.41897-0.03619-1.22032-0.08847-1.7932-0.11724-0.57224-0.02681-1.61352-0.05666-2.31845-0.05525-0.70823-0.00529-1.7677 0.01409-2.3581 0.03653-0.59374 0.0258-1.67406 0.09975-2.3952 0.1597-0.7185 0.06795-1.86232 0.20163-2.53361 0.29178-0.67463 0.09676-1.78132 0.27586-2.46339 0.4006s-1.70623 0.33214-2.26906 0.46531c-0.56546 0.12517-1.43777 0.34249-1.93867 0.48185-0.4962 0.13344-1.40068 0.40123-2.00832 0.58354-0.60632 0.18298-1.09852 0.30509-1.09371 0.26912 0.01078-0.03459 0.15238-0.48381 0.32819-1.00088 0.17514-0.51236 0.39262-1.12522 0.48411-1.3594 0.09813-0.23083 0.38999-0.96465 0.66296-1.62126 0.26695-0.66128 0.86097-2.01696 1.32441-3.01467 0.46275-0.99302 1.15573-2.44227 1.54638-3.21637 0.55577-1.1013 0.76702-1.47031 0.97637-1.69009 0.18996-0.19784 0.38829-0.31969 0.70182-0.42181 0.24216-0.07972 1.02094-0.22741 1.73426-0.33801 0.70598-0.106 1.91186-0.2601 2.67371-0.3379 0.75851-0.08112 1.8769-0.18093 2.47872-0.22266 0.60179-0.04175 1.59874-0.09268 2.20779-0.11239 0.61638-0.02105 1.74844-0.02885 2.52728-0.02129 0.77818 0.00887 1.89277 0.03568 2.46965 0.06646 0.58488 0.02815 1.5694 0.09443 2.18483 0.15134 0.62012 0.05097 1.67109 0.16414 2.3424 0.24257 0.66863 0.08375 1.83399 0.25465 2.58307 0.38404 0.75643 0.12806 1.92756 0.35361 2.60862 0.50205s1.69026 0.38404 2.23607 0.52931c0.55382 0.14264 1.38847 0.37363 1.86236 0.50929 0.46521 0.13632 1.26052 0.38245 1.75897 0.54222 0.49708 0.16575 1.41137 0.48363 2.02817 0.70979 0.61481 0.22679 1.53362 0.57868 2.02926 0.78373 0.50361 0.2024 1.42893 0.60428 2.06083 0.8898 0.63124 0.28682 1.58501 0.73479 2.11708 0.99662zm-28.1223-36.28331c0.16626 0.0839 0.66465 0.4389 1.10776 0.78764 0.4411 0.35277 1.23556 1.00069 1.76828 1.4464 0.53204 0.44373 1.5302 1.31958 2.22481 1.94379 0.69858 0.63289 1.76162 1.62495 2.3684 2.21819 0.60146 0.59055 1.58188 1.58094 2.17321 2.20478s1.51309 1.62466 2.04186 2.23027c0.5368 0.60299 1.30435 1.4993 1.70633 1.98252 0.40065 0.48254 1.14475 1.41209 1.65803 2.06163 0.51062 0.65487 1.22933 1.60496 1.5919 2.11335 0.36723 0.51238 0.98162 1.38818 1.37065 1.94996 0.38237 0.55842 1.03502 1.54026 1.44374 2.17543 0.4094 0.63715 1.05846 1.68893 1.44316 2.33199 0.3854 0.64505 1.02221 1.76078 1.41733 2.47582 0.38778 0.71638 1.03884 1.94604 1.43769 2.73309 0.39685 0.78767 0.83324 1.6921 0.9653 2.01241 0.13408 0.31629 0.2277 0.58385 0.21168 0.58911-0.016 0.00527-0.83983-0.27363-1.82864-0.61577-0.98748-0.34147-2.28377-0.782-2.87407-0.9681-0.59496-0.19009-1.60727-0.48567-2.25154-0.66729-0.64164-0.17362-1.56091-0.40891-2.04419-0.52262-0.4753-0.11636-1.4846-0.32533-2.2383-0.47202-0.8276-0.15567-1.48727-0.32-1.67481-0.41465-0.17158-0.08659-0.38753-0.24064-0.48313-0.33558-0.09891-0.10166-0.50712-0.69817-0.91919-1.32999-0.40809-0.63648-1.14361-1.72523-1.63605-2.42933-0.48913-0.69739-1.29718-1.80777-1.79381-2.46388-0.49728-0.65481-1.22806-1.58431-1.61671-2.06746-0.39667-0.48053-1.05398-1.28118-1.47723-1.77513-0.4166-0.49059-1.1949-1.36564-1.71844-1.94193-0.52822-0.58028-1.17662-1.27295-1.44344-1.54444-0.26948-0.2795-0.62678-0.58999-0.79361-0.69924-0.27518-0.1789-0.34042-0.19181-0.55056-0.12261-0.12876 0.04681-0.35323 0.20722-0.49973 0.36857-0.14317 0.15473-0.69306 0.75166-1.21756 1.32804-0.53116 0.57302-1.33602 1.47019-1.78769 1.99156-0.45969 0.52399-1.15769 1.35159-1.56059 1.83915-0.39492 0.48492-1.08778 1.36848-1.54036 1.95447-0.44728 0.58867-1.25225 1.69438-1.78943 2.46125-0.53121 0.76825-1.31845 1.94132-1.7427 2.61337-0.42755 0.66533-1.17097 1.88054-1.65036 2.68828-0.63828 1.07301-1.3045 2.31382-2.42409 4.53237-0.96783 1.90462-1.72996 3.49422-2.03182 4.22136-0.27087 0.63929-0.67233 1.62988-0.89834 2.20671s-0.592 1.53357-0.80479 2.13709c-0.21745 0.59953-0.50443 1.45264-0.63997 1.88653-0.13419 0.43458-0.58451 2.02468-0.9965 3.52559-0.41402 1.50493-0.91089 3.43195-1.11126 4.28206-0.19304 0.84877-0.47437 2.15364-0.60909 2.90005-0.14403 0.74837-0.34508 1.96359-0.45243 2.70542-0.10939 0.74583-0.25419 1.88596-0.32991 2.53863-0.07039 0.65536-0.16543 1.67041-0.20827 2.26125-0.04149 0.58484-0.11099 1.7179-0.1459 2.50799-0.03889 0.78808-0.07854 1.77268-0.08803 2.17841-0.01481 0.40305-0.01167 0.99204 0.00519 1.29261 0.01486 0.30787 0.00899 0.63033-0.01334 0.72418-0.01765 0.08791-0.08606 0.21024-0.15092 0.27595-0.06818 0.05573-1.11366 0.43429-2.32509 0.83422-1.21212 0.39795-2.69716 0.91347-3.30434 1.14775-0.61316 0.2329-1.60005 0.62768-2.20599 0.8826-0.59658 0.25298-1.30258 0.54088-1.56613 0.6365-0.25821 0.09831-0.50295 0.15671-0.54949 0.13323-0.04656-0.02349-0.106-0.16365-0.12676-0.31764-0.02474-0.156-0.06479-0.67184-0.08099-1.15562s-0.03879-1.39467-0.05579-2.02238c-0.01296-0.63234-0.02329-2.16283-0.01805-3.40007 0.00461-1.23593 0.05028-2.95343 0.10879-3.81671 0.05717-0.86396 0.16872-2.19611 0.24414-2.95404 0.08142-0.75328 0.23953-2.06193 0.35926-2.90766 0.11575-0.84774 0.34981-2.33333 0.52063-3.30347 0.16284-0.96749 0.42794-2.38568 0.58336-3.14668 0.15206-0.76433 0.44326-2.02583 0.64003-2.806 0.19613-0.78879 0.52715-2.01018 0.73769-2.72499 0.20252-0.71218 0.61514-2.02256 0.9169-2.90157 0.2971-0.88639 0.77588-2.24849 1.06397-3.02765 0.28472-0.78248 0.73684-1.96278 1.00447-2.62209 0.26829-0.66061 0.71663-1.71768 0.99284-2.35427 0.28019-0.63459 0.86525-1.90969 1.30306-2.83019 0.44928-0.95311 1.25191-2.50389 1.85695-3.60034 0.58096-1.0619 1.37559-2.44147 1.75239-3.07238 0.37943-0.6229 0.8721-1.41727 1.08923-1.75826 0.21647-0.33969 0.68352-1.05685 1.03664-1.58791 0.35242-0.53305 1.06518-1.56847 1.58758-2.2961 0.51842-0.72964 1.34673-1.84195 1.84211-2.47306 0.49075-0.63848 1.3783-1.73588 1.97331-2.45192 0.58896-0.71405 1.55051-1.81918 2.12856-2.45868 0.58268-0.63879 1.50783-1.63212 2.0643-2.20571 0.5505-0.57497 1.55157-1.56334 2.21755-2.1985 0.66329-0.62984 1.70023-1.58676 2.30322-2.12354 0.60828-0.5341 1.48527-1.28976 1.94977-1.68115 0.46383-0.38668 1.14748-0.94117 1.51569-1.23096 0.43832-0.33951 0.77092-0.54884 0.95631-0.59212 0.2294-0.05443 0.35659-0.03532 0.59068 0.08281l-0.00532-0.00268zm0.24422-3.86684c-0.2913-0.147-0.48429-0.20437-0.66427-0.18504-0.14061 0.00747-0.35338 0.06867-0.47154 0.13417-0.1135 0.05955-0.6526 0.43998-1.18442 0.8358-0.5325 0.3971-1.32561 0.99983-1.75332 1.3447-0.43434 0.34152-1.17751 0.95107-1.66274 1.35705-0.48321 0.40196-1.31605 1.12311-1.85953 1.60481-0.54078 0.47639-1.51691 1.3789-2.16681 1.99549-0.6546 0.62251-1.59747 1.54848-2.10047 2.06899-0.50761 0.51315-1.3384 1.39886-1.85617 1.95863-0.51645 0.56043-1.41101 1.56919-1.98518 2.244-0.58083 0.67145-1.5359 1.82655-2.11898 2.56862-0.59108 0.74471-1.4742 1.90275-1.96577 2.57923-0.49754 0.67509-1.2303 1.71376-1.64028 2.3079-0.40394 0.59215-1.06662 1.59443-1.47142 2.23122-0.40546 0.63482-1.12331 1.78613-1.59191 2.55929-0.68046 1.13015-1.22597 2.1582-2.72344 5.12556-1.48674 2.9461-1.9998 4.02892-2.50465 5.23434-0.34424 0.83755-0.71681 1.77096-0.82988 2.07105-0.13456 0.35596-0.29226 0.65518-0.45161 0.86846-0.13259 0.17342-0.34259 0.3945-0.46485 0.48135-0.12562 0.09346-0.70729 0.45908-1.29627 0.81271-0.58964 0.35493-1.54197 0.94906-2.11301 1.32004-0.57237 0.37031-1.45073 0.96337-1.9524 1.30932-0.50301 0.35194-1.51583 1.09242-2.24615 1.65004-0.73162 0.55696-1.69922 1.31359-2.15567 1.68902-0.45513 0.36943-1.35817 1.1536-2.00591 1.7262-0.65043 0.57792-1.63657 1.48709-2.19625 2.02733-0.56164 0.53095-1.50396 1.48225-2.09461 2.11035-0.59597 0.62541-1.53124 1.65203-2.08058 2.27429-0.54668 0.63027-1.38592 1.63522-1.86852 2.23112-0.47928 0.5992-1.30346 1.67683-1.83649 2.3991-0.5284 0.72297-1.25579 1.751-1.61487 2.28069-0.35378 0.53236-0.90325 1.3765-1.22495 1.88502-0.31968 0.5045-0.82511 1.32416-1.12077 1.82077-0.29568 0.4966-1.05237 1.88035-1.67975 3.07063-0.6925 1.31932-1.38937 2.73993-1.78847 3.63327-0.36146 0.80885-0.81039 1.85391-1.00001 2.31892-0.19226 0.45702-0.55151 1.39048-0.80317 2.05784-0.24834 0.67068-0.69207 1.92695-0.98249 2.79671-0.29169 0.86244-0.64499 1.98912-0.79413 2.49295-0.14578 0.50716-0.38617 1.37043-0.52881 1.92425-0.14798 0.55112-0.41936 1.68415-0.60972 2.5276-0.18899 0.83747-0.4646 2.21032-0.6163 3.05326-0.14971 0.84232-0.35042 2.14281-0.45245 2.88732-0.09606 0.74589-0.21156 1.71222-0.25779 2.13782-0.04291 0.43557-0.11601 1.27815-0.16555 1.87895-0.04421 0.60349-0.09603 1.4568-0.11631 1.89713-0.01962 0.43902-0.04686 1.31972-0.06654 1.95397-0.0224 1.0133-0.04643 1.20311-0.22517 1.6069-0.14927 0.36189-0.38771 0.70546-1.11006 1.63092-0.50146 0.64642-1.24533 1.62774-1.65312 2.17792-0.40518 0.55817-1.08239 1.52643-1.50711 2.14649-0.42607 0.62606-0.94401 1.40767-1.15442 1.73203-0.20842 0.32374-0.67226 1.07424-1.03624 1.66654-0.35867 0.59498-1.03727 1.75779-1.50874 2.58955-0.54192 0.9581-1.39151 2.60199-2.30927 4.47349-0.79827 1.63143-1.63637 3.41128-1.8703 3.9641-0.22658 0.55151-0.66969 1.63788-0.9724 2.4163-0.30737 0.77775-0.76966 2.00465-1.02554 2.72994-0.25919 0.72196-0.7012 2.05089-0.98637 2.94998-0.28117 0.89443-0.68197 2.25748-0.90138 3.02623-0.21005 0.76677-0.54339 2.07212-0.74165 2.89156s-0.49239 2.16291-0.66137 2.99049c-0.16499 0.82956-0.41457 2.1905-0.55828 3.03082-0.141 0.835-0.32201 2.03362-0.39762 2.65964-0.08297 0.63065-0.18265 1.27791-0.22126 1.44701-0.03992 0.16841-0.17105 0.49441-0.28919 0.72851-0.16449 0.33918-0.19958 0.45831-0.14618 0.61044 0.0448 0.13274 0.1464 0.22906 0.34325 0.32839 0.15562 0.07853 1.25455 0.54969 2.43673 1.03446 1.18285 0.48676 2.53872 1.02748 3.00911 1.20645 0.46775 0.17099 1.31881 0.47529 1.88973 0.67329 0.56493 0.19999 1.75013 0.5895 2.62862 0.8626 0.87913 0.27511 2.29012 0.68011 3.13878 0.91313 0.84732 0.23234 2.5195 0.63899 3.7198 0.90594 1.20166 0.26764 2.88007 0.61235 3.73237 0.75543 0.85094 0.14907 2.28727 0.37826 3.1896 0.50154 0.90768 0.12596 2.38218 0.30267 3.29133 0.38932 0.89914 0.08995 2.2526 0.19891 3.00467 0.24634 0.74869 0.05074 1.95176 0.11052 2.66928 0.13384 0.72415 0.02667 2.09263 0.03973 3.04476 0.03793 0.95743 0.00088 2.40002-0.02707 3.20502-0.05807 0.80633-0.03697 2.09452-0.10948 2.86493-0.1646 0.76644-0.05713 1.9788-0.16123 2.69067-0.2392 0.71053-0.07865 1.37433-0.1275 1.47292-0.11781 0.10723 0.00907 0.32282 0.08448 0.48376 0.1657s0.66676 0.40823 1.13532 0.72314c0.46321 0.31886 1.35255 0.89783 1.97007 1.28789 0.9293 0.58577 1.7299 1.0165 4.46718 2.39786 2.20792 1.11422 3.70304 1.83534 4.41089 2.12248 0.58808 0.24337 1.67657 0.65584 2.42047 0.92776 0.74324 0.26996 1.98563 0.68833 2.75762 0.9277 0.77266 0.24142 1.93673 0.58021 2.59836 0.75721 0.65428 0.17501 1.86049 0.46997 2.68001 0.6549 0.8162 0.17826 2.12909 0.44365 2.91548 0.5785 0.7857 0.13616 1.90839 0.31223 2.49644 0.38702 0.58536 0.08013 1.55441 0.19033 2.1445 0.24782 0.59609 0.05886 1.7118 0.14628 2.48783 0.19913 0.77205 0.04417 2.17573 0.09335 3.11714 0.09952 0.93874 0.01146 2.21471 0.00289 2.82577-0.02084 0.61772-0.02037 1.76064-0.08941 2.54372-0.14313 0.77844-0.05775 2.13013-0.19 3.00468-0.29601 0.86723-0.10473 2.33386-0.32248 3.2586-0.48828 0.92072-0.16116 2.1509-0.39978 2.73637-0.52822 0.58149-0.13043 1.68582-0.39416 2.45145-0.59521 0.76697-0.20038 2.41982-0.68794 3.67125-1.08775 1.25343-0.40376 2.87989-0.96474 3.62185-1.24781 0.73864-0.28643 1.89504-0.7592 2.57639-1.04785 0.67672-0.29598 1.69648-0.7526 2.26518-1.02632 0.56734-0.27441 1.48116-0.72607 2.01787-1.0026 0.53941-0.28183 1.55754-0.83772 2.26863-1.24151 0.71241-0.40313 1.87032-1.09707 2.56888-1.53892 0.70058-0.44245 1.48534-0.95258 1.74783-1.12553 0.26717-0.17889 0.66898-0.36663 0.90106-0.42638 0.3428-0.08735 0.5986-0.07509 1.55287 0.06104 0.62928 0.09562 1.72145 0.24292 2.42802 0.33085 0.71261 0.08593 1.84546 0.21536 2.52484 0.27786 0.67937 0.06248 1.69446 0.14421 2.25534 0.18025 0.56288 0.03542 1.54146 0.08701 2.1703 0.11732 0.63288 0.02568 1.69281 0.05827 2.3557 0.07404 0.65822 0.01179 1.89285 0.00904 2.7411-0.00515 0.84889-0.0155 2.28225-0.06814 3.18656-0.11408 0.91031-0.04795 2.28254-0.14479 3.05767-0.20922 0.7718-0.06774 2.15154-0.2192 3.06145-0.33245 0.9119-0.11387 2.3498-0.31441 3.1938-0.4492 0.84137-0.14279 2.19483-0.38431 3.0123-0.54583 0.81345-0.16355 2.03972-0.42419 2.72055-0.58291 0.68486-0.15669 1.64585-0.39434 2.14136-0.52308 0.49356-0.1281 1.62205-0.43971 2.50644-0.69096 0.88046-0.25991 2.51611-0.77622 3.63217-1.15251 1.11679-0.38097 2.65193-0.92962 3.41528-1.22861 0.76261-0.29432 1.85098-0.73471 2.41484-0.97247 0.56992-0.23975 1.16255-0.50806 1.32412-0.59673 0.16628-0.098 0.33609-0.25263 0.3965-0.37234 0.05772-0.11438 0.10058-0.35473 0.10191-0.53597 0.00002-0.1819-0.10895-1.15639-0.24509-2.17632-0.13416-1.01389-0.38525-2.65921-0.56478-3.64929-0.17023-0.99206-0.43302-2.35626-0.5731-3.03436-0.14342-0.67149-0.41817-1.85981-0.60984-2.64074-0.19297-0.78159-0.56293-2.16815-0.81876-3.0799-0.26046-0.9058-0.8314-2.72082-1.27166-4.01773-0.43429-1.29552-1.06544-3.04086-1.39414-3.87761-0.33202-0.84005-0.84977-2.08592-1.14971-2.7713-0.29727-0.69071-0.73539-1.66778-0.97269-2.17967-0.23796-0.5106-0.61486-1.2882-0.8324-1.73675-0.21889-0.44256-0.68987-1.35778-1.04649-2.03337s-0.99461-1.83862-1.41963-2.57379c-0.42034-0.74111-1.06723-1.83687-1.43147-2.43121-0.36558-0.59502-1.02274-1.61753-1.45741-2.26743-0.43796-0.6566-1.12383-1.66188-1.52213-2.24167-0.40695-0.57586-1.13948-1.578-1.63944-2.22749-0.49131-0.65342-1.32817-1.71992-1.85677-2.37882-0.58825-0.73244-0.99724-1.30429-1.06186-1.48709-0.06725-0.19079-0.08043-0.76987-0.04838-1.68654 0.02884-0.7681 0.04892-2.04796 0.04988-2.85015-0.00236-0.79556-0.02744-1.93631-0.05324-2.53006-0.02111-0.58975-0.09104-1.68138-0.14691-2.42047-0.05724-0.73978-0.19359-2.06019-0.2996-2.93474-0.11134-0.87724-0.28861-2.12652-0.39545-2.78118-0.10881-0.66069-0.26808-1.54878-0.35644-1.97884-0.08767-0.43475-0.26724-1.24295-0.38976-1.8004-0.12785-0.56015-0.35621-1.50311-0.51259-2.09604-0.15173-0.59221-0.48776-1.78477-0.74706-2.65321-0.25732-0.85914-0.74701-2.30611-1.07879-3.2095-0.33776-0.90803-0.75013-2.00227-0.9171-2.43197-0.17631-0.42774-0.57847-1.40001-0.90613-2.15943-0.32833-0.75813-0.90073-1.99821-1.27771-2.74917-0.37034-0.75427-1.09287-2.11015-1.60453-3.02084-0.515-0.90408-1.195-2.06324-1.51891-2.57215-0.32722-0.51561-0.86453-1.33577-1.19518-1.82805-0.3373-0.49564-1.05649-1.49772-1.60547-2.23199-0.54161-0.73559-1.31146-1.72988-1.69747-2.20503-0.39133-0.47784-1.12439-1.33673-1.63664-1.90895-0.50892-0.56891-1.32581-1.45676-1.81562-1.97096-0.49184-0.51018-1.36012-1.37222-1.92844-1.91269-0.57634-0.53785-1.53324-1.40621-2.13295-1.92413-0.59637-0.52127-1.5223-1.29558-2.06576-1.72002-0.53943-0.42908-1.42972-1.10534-1.97457-1.51047-0.5522-0.40379-1.42475-1.0127-1.93847-1.36371-0.51244-0.3437-1.39248-0.91131-1.94755-1.25651-0.55638-0.34586-1.54762-0.93786-2.19453-1.30939-0.65425-0.37019-1.58448-0.87803-2.06731-1.12169-0.59321-0.29936-0.96416-0.51992-1.14077-0.68584-0.16828-0.26179-0.35351-0.61561-0.75121-1.53388-0.28935-0.6667-0.81341-1.82398-1.16907-2.57752-0.35168-0.75153-0.9515-1.96705-1.32852-2.70468-0.37705-0.73764-1.12616-2.12028-1.66498-3.06973-0.5348-0.9541-1.32931-2.31294-1.76307-3.02746-0.43776-0.70987-1.16444-1.85257-1.61564-2.53587-0.44921-0.68392-1.18214-1.75135-1.6196-2.36929-0.44009-0.62594-1.1912-1.64413-1.67459-2.27354-0.48006-0.6261-1.18697-1.52354-1.56767-1.99601-0.38601-0.47516-0.98565-1.20163-1.34189-1.61669-0.35292-0.41176-1.04292-1.20385-1.53263-1.74468-0.49302-0.54754-1.34576-1.46683-1.90332-2.0419-0.55885-0.58239-1.35536-1.39488-1.7676-1.80484-0.42024-0.40733-1.20834-1.15715-1.75879-1.67022-0.54976-0.51109-1.54258-1.39758-2.21468-1.97708-0.66749-0.5788-1.6658-1.41469-2.21582-1.86246-0.55336-0.44115-1.42964-1.13199-1.95984-1.52972-0.52358-0.39439-1.13832-0.8164-1.3671-0.93186l-0.03157 0.07584z" />
</svg>